<?xml version="1.0" encoding="UTF-8"?>
<!DOCTYPE svg PUBLIC "-//W3C//DTD SVG 1.1//EN" "http://www.w3.org/Graphics/SVG/1.1/DTD/svg11.dtd">
<svg xmlns="http://www.w3.org/2000/svg" version="1.1" width="514px" height="260px" style="shape-rendering:geometricPrecision; text-rendering:geometricPrecision; image-rendering:optimizeQuality; fill-rule:evenodd; clip-rule:evenodd" xmlns:xlink="http://www.w3.org/1999/xlink">
<g><path style="opacity:1" fill="#020202" d="M 14.5,-0.5 C 15.5,-0.5 16.5,-0.5 17.5,-0.5C 17.5067,6.84006 21.1734,10.5067 28.5,10.5C 35.2919,9.94263 39.2919,6.27596 40.5,-0.5C 41.1667,-0.5 41.8333,-0.5 42.5,-0.5C 44.4025,8.84929 40.7358,15.016 31.5,18C 40.447,22.174 42.6136,28.674 38,37.5C 35.9205,39.1233 33.7538,40.6233 31.5,42C 36.0162,44.1535 39.5162,47.3202 42,51.5C 42.1688,66.0059 42.6688,80.3392 43.5,94.5C 46.1667,94.5 48.8333,94.5 51.5,94.5C 51.5,97.5 51.5,100.5 51.5,103.5C 48.9426,105.032 46.4426,106.699 44,108.5C 43.5001,119.828 43.3335,131.162 43.5,142.5C 48.1667,142.5 52.8333,142.5 57.5,142.5C 57.8266,147.214 57.4933,151.88 56.5,156.5C 52.5151,159.984 48.6818,163.651 45,167.5C 44.3333,185.167 44.3333,202.833 45,220.5C 47.4458,224.394 49.6124,228.394 51.5,232.5C 51.5,240.833 51.5,249.167 51.5,257.5C 35.9909,257.17 20.6576,257.504 5.5,258.5C 5.77577,250.36 5.44243,242.027 4.5,233.5C 7.23216,229.276 9.73216,224.942 12,220.5C 12.6667,202.5 12.6667,184.5 12,166.5C 7.93972,162.93 3.77305,159.596 -0.5,156.5C -0.5,151.833 -0.5,147.167 -0.5,142.5C 4.16667,142.5 8.83333,142.5 13.5,142.5C 13.6665,131.162 13.4999,119.828 13,108.5C 10.079,106.623 7.24564,104.623 4.5,102.5C 5.79463,99.6341 5.79463,96.8007 4.5,94C 7.76027,93.2165 10.9269,93.3832 14,94.5C 14.3333,80.8333 14.6667,67.1667 15,53.5C 16.4022,47.7639 19.9022,43.9306 25.5,42C 13.5992,33.7972 13.5992,25.7972 25.5,18C 16.859,14.8959 13.1923,8.72923 14.5,-0.5 Z"/></g>
<g><path style="opacity:0.294" fill="#313131" d="M 43.5,94.5 C 46.2869,93.5233 49.2869,93.19 52.5,93.5C 52.8128,97.0419 52.4794,100.375 51.5,103.5C 51.5,100.5 51.5,97.5 51.5,94.5C 48.8333,94.5 46.1667,94.5 43.5,94.5 Z"/></g>
<g><path style="opacity:0.998" fill="#060203" d="M 356.5,103.5 C 367.387,102.23 372.553,106.896 372,117.5C 368.589,118.293 365.089,118.793 361.5,119C 365.35,121.854 368.85,125.021 372,128.5C 375.108,144.059 368.942,150.225 353.5,147C 351.333,146.167 349.833,144.667 349,142.5C 347.763,138.94 347.263,135.273 347.5,131.5C 351.182,131.665 354.848,131.499 358.5,131C 348.102,126.147 344.935,118.314 349,107.5C 351.255,105.501 353.755,104.168 356.5,103.5 Z M 358.5,111.5 C 359.725,112.152 360.392,113.319 360.5,115C 360.333,116.167 360.167,117.333 360,118.5C 358.648,116.406 358.148,114.073 358.5,111.5 Z"/></g>
<g><path style="opacity:0.998" fill="#050202" d="M 431.5,104.5 C 435.5,104.5 439.5,104.5 443.5,104.5C 443.5,106.5 443.5,108.5 443.5,110.5C 439.5,110.5 435.5,110.5 431.5,110.5C 431.5,108.5 431.5,106.5 431.5,104.5 Z"/></g>
<g><path style="opacity:0.999" fill="#050102" d="M 382.5,110.5 C 390.333,109.495 395.833,112.495 399,119.5C 399.667,126.167 399.667,132.833 399,139.5C 396.897,145.307 392.731,148.307 386.5,148.5C 383.456,147.822 380.456,146.989 377.5,146C 375.683,144.2 374.516,142.034 374,139.5C 373.144,131.768 373.477,124.102 375,116.5C 377.109,113.878 379.609,111.878 382.5,110.5 Z M 385.5,118.5 C 386.822,121.768 387.489,125.435 387.5,129.5C 387.167,133.167 386.833,136.833 386.5,140.5C 385.503,133.197 385.169,125.863 385.5,118.5 Z"/></g>
<g><path style="opacity:0.998" fill="#040102" d="M 513.5,112.5 C 513.5,113.167 513.5,113.833 513.5,114.5C 511.911,126.163 509.744,137.829 507,149.5C 506.5,150 506,150.5 505.5,151C 500.552,152.05 495.552,152.55 490.5,152.5C 490.5,150.167 490.5,147.833 490.5,145.5C 491.5,145.5 492.5,145.5 493.5,145.5C 491.807,135.483 489.973,125.483 488,115.5C 487.51,116.793 487.343,118.127 487.5,119.5C 486.5,119.5 485.5,119.5 484.5,119.5C 484.5,126.5 484.5,133.5 484.5,140.5C 485.833,140.5 487.167,140.5 488.5,140.5C 488.5,142.833 488.5,145.167 488.5,147.5C 484.818,147.665 481.152,147.499 477.5,147C 476.069,146.535 474.903,145.701 474,144.5C 473.5,136.173 473.334,127.84 473.5,119.5C 472.5,119.5 471.5,119.5 470.5,119.5C 470.5,123.167 470.5,126.833 470.5,130.5C 466.167,130.5 461.833,130.5 457.5,130.5C 457.18,133.898 457.513,137.232 458.5,140.5C 459.484,137.572 459.817,134.572 459.5,131.5C 463.167,131.5 466.833,131.5 470.5,131.5C 472.625,141.604 468.625,147.271 458.5,148.5C 447.521,146.837 443.188,140.504 445.5,129.5C 444.452,112.2 451.786,107.033 467.5,114C 468.893,115.171 469.727,116.671 470,118.5C 470.495,116.527 470.662,114.527 470.5,112.5C 471.5,112.5 472.5,112.5 473.5,112.5C 473.5,110.833 473.5,109.167 473.5,107.5C 477.167,107.5 480.833,107.5 484.5,107.5C 484.151,110.045 484.984,112.045 487,113.5C 487.333,112.833 487.667,112.167 488,111.5C 491.394,112.456 494.894,112.789 498.5,112.5C 499.006,118.536 499.839,124.536 501,130.5C 501.333,124.833 501.667,119.167 502,113.5C 505.73,112.54 509.563,112.207 513.5,112.5 Z M 457.5,118.5 C 458.234,119.878 458.901,121.378 459.5,123C 459.167,123.167 458.833,123.333 458.5,123.5C 457.548,121.955 457.215,120.288 457.5,118.5 Z"/></g>
<g><path style="opacity:0.998" fill="#080203" d="M 416.5,111.5 C 420.013,111.307 423.346,111.974 426.5,113.5C 414.039,118.737 410.539,127.404 416,139.5C 419.098,142.43 422.598,144.764 426.5,146.5C 418.255,149.648 411.088,147.981 405,141.5C 398.16,127.166 401.993,117.166 416.5,111.5 Z"/></g>
<g><path style="opacity:0.999" fill="#040102" d="M 431.5,112.5 C 435.5,112.5 439.5,112.5 443.5,112.5C 443.5,124.167 443.5,135.833 443.5,147.5C 439.5,147.5 435.5,147.5 431.5,147.5C 431.5,135.833 431.5,124.167 431.5,112.5 Z"/></g>
<g><path style="opacity:1" fill="#010101" d="M 140.5,133.5 C 151.167,133.5 161.833,133.5 172.5,133.5C 172.5,174.5 172.5,215.5 172.5,256.5C 161.833,256.5 151.167,256.5 140.5,256.5C 140.5,215.5 140.5,174.5 140.5,133.5 Z"/></g>
<g><path style="opacity:0.294" fill="#201412" d="M 140.5,133.5 C 151.321,132.505 162.321,132.172 173.5,132.5C 173.5,174.167 173.5,215.833 173.5,257.5C 162.321,257.828 151.321,257.495 140.5,256.5C 151.167,256.5 161.833,256.5 172.5,256.5C 172.5,215.5 172.5,174.5 172.5,133.5C 161.833,133.5 151.167,133.5 140.5,133.5 Z"/></g>
<g><path style="opacity:0.999" fill="#020201" d="M 104.5,259.5 C 98.5,259.5 92.5,259.5 86.5,259.5C 65.2293,255.366 56.5626,242.366 60.5,220.5C 69.8333,220.5 79.1667,220.5 88.5,220.5C 88.3341,225.511 88.5007,230.511 89,235.5C 90.3496,239.524 93.0163,240.524 97,238.5C 98.8174,233.528 98.8174,228.528 97,223.5C 88.4167,218.459 79.9167,213.292 71.5,208C 65.2742,203.768 61.4408,197.934 60,190.5C 55.3693,168.169 64.2026,155.669 86.5,153C 98.532,151.504 109.532,154.17 119.5,161C 121,163.167 122.5,165.333 124,167.5C 125.384,174.411 125.884,181.411 125.5,188.5C 116.167,188.5 106.833,188.5 97.5,188.5C 97.6658,183.821 97.4992,179.155 97,174.5C 91.2502,171.304 88.4169,173.137 88.5,180C 89.0705,185.921 92.0705,190.254 97.5,193C 107.392,196.86 116.226,202.36 124,209.5C 129.644,221.622 129.977,233.956 125,246.5C 119.633,253.26 112.8,257.594 104.5,259.5 Z"/></g>
<g><path style="opacity:0.999" fill="#020101" d="M 213.5,259.5 C 209.833,259.5 206.167,259.5 202.5,259.5C 189.073,254.673 183.406,245.007 185.5,230.5C 185.267,223.566 186.433,216.899 189,210.5C 190.558,208.641 192.391,207.141 194.5,206C 204.528,201.902 214.361,197.402 224,192.5C 225.871,186.511 225.871,180.511 224,174.5C 222.211,172.771 220.044,172.104 217.5,172.5C 216.602,180.124 216.269,187.791 216.5,195.5C 206.251,195.819 196.084,195.486 186,194.5C 182.909,167.59 194.909,153.59 222,152.5C 233.947,151.813 243.947,155.813 252,164.5C 254.34,168.521 255.674,172.854 256,177.5C 256.176,203.876 256.676,230.209 257.5,256.5C 246.854,257.499 236.187,257.832 225.5,257.5C 225.662,255.473 225.495,253.473 225,251.5C 221.85,255.311 218.017,257.977 213.5,259.5 Z M 223.5,210.5 C 224.658,219.657 224.824,228.991 224,238.5C 222,239.833 220,239.833 218,238.5C 214.802,228.006 216.635,218.673 223.5,210.5 Z"/></g>
<g><path style="opacity:1" fill="#020101" d="M 302.5,176.5 C 301.502,202.995 301.169,229.661 301.5,256.5C 291.5,256.5 281.5,256.5 271.5,256.5C 271.5,222.5 271.5,188.5 271.5,154.5C 281.833,154.5 292.167,154.5 302.5,154.5C 302.336,157.187 302.503,159.854 303,162.5C 315.969,148.989 328.636,149.323 341,163.5C 353.085,149.873 365.752,149.207 379,161.5C 380.605,164.648 381.605,167.981 382,171.5C 382.5,200.165 382.667,228.831 382.5,257.5C 372.167,257.5 361.833,257.5 351.5,257.5C 351.908,229.808 351.408,202.141 350,174.5C 347.23,171.72 344.896,172.054 343,175.5C 342.5,202.831 342.333,230.165 342.5,257.5C 332.167,257.5 321.833,257.5 311.5,257.5C 311.667,231.498 311.5,205.498 311,179.5C 311.937,173.92 309.77,171.754 304.5,173C 303.695,174.113 303.028,175.279 302.5,176.5 Z"/></g>
<g><path style="opacity:1" fill="#020101" d="M 513.5,180.5 C 513.5,185.167 513.5,189.833 513.5,194.5C 503.5,194.5 493.5,194.5 483.5,194.5C 483.884,187.411 483.384,180.411 482,173.5C 476.456,171.364 474.123,173.364 475,179.5C 474.333,196.833 474.333,214.167 475,231.5C 474.871,235.582 476.538,238.582 480,240.5C 481.512,239.743 482.846,238.743 484,237.5C 484.184,229.921 484.684,222.421 485.5,215C 494.827,214.5 504.161,214.334 513.5,214.5C 513.5,220.5 513.5,226.5 513.5,232.5C 509.459,246.876 500.125,255.876 485.5,259.5C 480.5,259.5 475.5,259.5 470.5,259.5C 456.967,257.473 448.467,249.807 445,236.5C 443.411,217.205 443.078,197.871 444,178.5C 445.487,166.012 452.321,158.179 464.5,155C 480.449,150.418 494.616,153.585 507,164.5C 510.072,169.566 512.238,174.9 513.5,180.5 Z"/></g>
<g><path style="opacity:0.53" fill="#160609" d="M 396.5,154.5 C 407.5,154.5 418.5,154.5 429.5,154.5C 429.5,188.833 429.5,223.167 429.5,257.5C 418.5,257.5 407.5,257.5 396.5,257.5C 396.5,223.167 396.5,188.833 396.5,154.5 Z"/></g>
<g><path style="opacity:1" fill="#010101" d="M 397.5,155.5 C 407.833,155.5 418.167,155.5 428.5,155.5C 428.5,189.167 428.5,222.833 428.5,256.5C 418.167,256.5 407.833,256.5 397.5,256.5C 397.5,222.833 397.5,189.167 397.5,155.5 Z"/></g>
<g><path style="opacity:0.702" fill="#1a0e0d" d="M 302.5,176.5 C 302.5,203.5 302.5,230.5 302.5,257.5C 291.986,257.828 281.653,257.494 271.5,256.5C 281.5,256.5 291.5,256.5 301.5,256.5C 301.169,229.661 301.502,202.995 302.5,176.5 Z"/></g>
<g><path style="opacity:0.274" fill="#1d1e1e" d="M 51.5,232.5 C 52.493,240.984 52.8264,249.651 52.5,258.5C 36.8333,258.5 21.1667,258.5 5.5,258.5C 20.6576,257.504 35.9909,257.17 51.5,257.5C 51.5,249.167 51.5,240.833 51.5,232.5 Z"/></g>
</svg>
