<?xml version="1.0" standalone="no"?>
<!DOCTYPE svg PUBLIC "-//W3C//DTD SVG 20010904//EN"
 "http://www.w3.org/TR/2001/REC-SVG-20010904/DTD/svg10.dtd">
<svg version="1.0" xmlns="http://www.w3.org/2000/svg"
 width="512.000000pt" height="512.000000pt" viewBox="0 0 512.000000 512.000000"
 preserveAspectRatio="xMidYMid meet">

<g transform="translate(0.000000,512.000000) scale(0.100000,-0.100000)"
fill="#000000" stroke="none">
<path d="M623 4670 c-17 -10 -37 -28 -42 -39 -8 -14 -11 -621 -11 -2005 l0
-1986 -167 0 c-148 0 -172 -2 -199 -19 -69 -42 -63 -146 10 -176 53 -22 4639
-22 4692 0 73 30 79 134 10 176 -27 17 -51 19 -198 19 l-168 0 0 1979 c0 1262
-4 1989 -10 2005 -5 14 -24 35 -42 46 -33 20 -52 20 -1938 20 -1869 0 -1906 0
-1937 -20z m3727 -2110 l0 -1920 -335 0 -335 0 0 768 c0 849 0 843 -65 980
-111 234 -348 461 -710 682 -115 70 -315 170 -341 170 -31 0 -256 -115 -391
-200 -320 -200 -544 -416 -648 -624 -78 -158 -75 -114 -75 -993 l0 -783 -340
0 -340 0 0 1920 0 1920 1790 0 1790 0 0 -1920z m-1683 410 c400 -214 693 -479
782 -709 l26 -66 3 -777 3 -778 -916 0 -916 0 3 788 3 787 23 54 c77 182 258
368 539 554 119 79 326 196 347 197 5 0 52 -23 103 -50z"/>
</g>
</svg>
